<?xml version="1.0" encoding="UTF-8"?>
<!-- Generator: Adobe Illustrator 21.0.2, SVG Export Plug-In . SVG Version: 6.00 Build 0)  -->
<!DOCTYPE svg PUBLIC "-//W3C//DTD SVG 1.1//EN" "http://www.w3.org/Graphics/SVG/1.1/DTD/svg11.dtd">
<svg version="1.1" id="logo" xmlns="http://www.w3.org/2000/svg" xmlns:xlink="http://www.w3.org/1999/xlink" x="0px" y="0px" width="143.2px" height="64.8px" viewBox="0 0 143.2 64.8" style="enable-background:new 0 0 143.2 64.8;" xml:space="preserve">
<style type="text/css">
	.st0{fill:#FFFFFF;}
</style>
<path class="st0" d="M55.6,49.8c0.5-1.9,1.3-4.2,2.2-6.4c1.4-3.3,2.8-6.8,2.8-9.9c0-2.8-1.2-5.7-3.3-7.8c-1.9-1.9-5.4-4.1-11.3-4.1  c-1.2,0-2.3,0.1-3.2,0.2c0.3,1,0.5,2,0.7,3c0.8-0.1,1.6-0.2,2.5-0.2c4.9,0,7.7,1.8,9.1,3.2c1.5,1.5,2.4,3.6,2.4,5.6  c0,2.5-1.3,5.7-2.6,8.7c-0.9,2.1-1.8,4.7-2.4,6.8c-1.2,4.9-3.2,12.7-8.1,12.7c-1.9,0-4-1.2-6-2.8c-1,0.5-2,1-3.2,1.4  c2.8,2.5,5.9,4.6,9.2,4.6C51.9,64.8,54.3,55.3,55.6,49.8z"/>
<path class="st0" d="M12.7,29.3c-1.3-3.1-2.4-7.2-2.4-10.6c0-6,1.5-10.9,4-13.4C15.8,3.8,17.7,3,20,3c5.9,0,16.9,5.4,21.6,15.4  c1-0.2,2.1-0.3,3.3-0.3C39.9,6.2,27,0,20,0C10.5,0,7.1,9.7,7.1,18.8c0,4.3,1.5,8.9,2.7,11.7C10.7,30.1,11.6,29.7,12.7,29.3z"/>
<path class="st0" d="M33.4,54c-1.8,0.6-3.8,1.1-6.2,1.1c-7.2,0-15.1-3.2-20.1-8.2c-2.5-2.5-4-5.2-4-7.4c0-3.2,1.3-5.5,3.7-7.2  c-0.3-0.8-0.7-1.9-1.1-3C2.3,31.4,0,34.5,0,39.4c0,3,1.7,6.5,4.9,9.6c4.4,4.4,12.6,9.1,22.3,9.1c3.4,0,6.3-0.7,8.6-1.8  C35,55.6,34.2,54.8,33.4,54z"/>
<path class="st0" d="M132.7,25.8c-3.8,0-7,0.7-10,1.9V47h6.5V31.5c0.9-0.4,2.1-0.6,3.3-0.6c3.5,0,4.2,2.1,4.2,6.1v10.1h6.5V36  C143.2,29.8,141.1,25.8,132.7,25.8z"/>
<rect x="70.5" y="18.6" class="st0" width="6.5" height="28.3"/>
<polygon class="st0" points="84.4,47 92.1,47 84,35.6 91.4,26.6 84,26.6 77,35.8 "/>
<path class="st0" d="M105.8,30.8c2.8,0,4.7,1.8,4.7,5.8c0,3.9-1.5,6.1-5,6.1c-1,0-2.3-0.2-2.9-0.5V31.4  C103.6,31,104.7,30.8,105.8,30.8z M96.2,27.7v27.2h6.5v-7.8c1.4,0.3,2.5,0.3,3.7,0.3c7.1,0,10.9-4.1,10.9-10.9  c0-6.9-3.7-10.7-11.3-10.7C102.4,25.8,98.9,26.6,96.2,27.7z"/>
<path class="st0" d="M29.5,28.3v-3.2c-0.8-0.2-1.7-0.3-2.6-0.3c-3.7,0-5.6,2.5-5.6,5.1c0,2.4,0.9,4.7,4.3,10  c1.4-0.2,2.7-0.3,4.1-0.3c-3-5.6-3.7-7.5-3.7-8.9c0-1.6,0.9-2.4,2.8-2.4C29,28.3,29.3,28.3,29.5,28.3z"/>
<path class="st0" d="M19.3,33c-0.3-0.7-0.5-1.9-0.6-2.8c-3-0.1-5.2,1.6-5.2,4c0,1.9,1,3.7,5.1,7.1c1-0.3,2.4-0.7,3.6-1  c-4-3.7-4.6-4.7-4.6-5.9C17.6,33.7,18.2,33.2,19.3,33z"/>
<path class="st0" d="M32.2,28.3v-3.2c0.8-0.2,1.7-0.3,2.6-0.3c3.7,0,5.6,2.5,5.6,5.1c0,2.4-0.9,4.7-4.3,10c-1.4-0.2-2.7-0.3-4.1-0.3  c2.9-5.4,3.7-7.4,3.7-8.8c0-1.6-0.9-2.4-2.8-2.4C32.6,28.3,32.4,28.3,32.2,28.3z"/>
<path class="st0" d="M42.4,33c0.3-0.7,0.5-1.9,0.6-2.8c3-0.1,5.2,1.6,5.2,4c0,1.9-1,3.7-5.1,7.1c-1-0.3-2.4-0.7-3.6-1  c4-3.7,4.6-4.7,4.6-5.9C44.1,33.7,43.5,33.2,42.4,33z"/>
<path class="st0" d="M30.8,46.3c3,0,6.1,0.4,9.3,1.3l1.1-3.6c-3.6-1.1-7.1-1.5-10.4-1.5S24,42.9,20.4,44l1.1,3.6  C24.8,46.7,27.8,46.3,30.8,46.3z"/>
<rect x="28.5" y="17.3" transform="matrix(0.7072 -0.7071 0.7071 0.7072 -4.8655 27.5472)" class="st0" width="4.7" height="4.7"/>
</svg>