<svg width="103" height="39" viewBox="0 0 103 39" fill="none" xmlns="http://www.w3.org/2000/svg">
  <g id="KPN_logo">
    <path id="Vector"
      d="M94.3121 12.1488C91.1286 12.1488 88.4792 12.7101 86.0762 13.6524V29.2495H91.4367V16.7197C92.2172 16.3789 93.1825 16.1985 94.1889 16.1985C97.0848 16.1985 97.6393 17.9226 97.6393 21.1101V29.2495H103V20.3483C103.02 15.3564 101.316 12.1488 94.3121 12.1488Z"
      fill="#00C300" />
    <path id="Vector_2" d="M48.4499 6.2547H43.0894V29.1693H48.4499V6.2547Z" fill="#00C300" />
    <path id="Vector_3"
      d="M60.3833 12.6904H54.2834L48.4504 20.1682L54.5914 29.1897H60.9378L54.2834 19.9677L60.3833 12.6904Z"
      fill="#00C300" />
    <path id="Vector_4"
      d="M72.2127 12.0689C69.3784 12.0689 66.4208 12.6703 64.1821 13.5725V35.605H69.5427V29.31C76.2793 30.5128 81.7014 27.7863 81.5987 20.7496C81.5782 15.1763 78.5385 12.0689 72.2127 12.0689ZM71.9457 25.7014C71.1241 25.7014 70.0767 25.541 69.5427 25.3405V16.5596C72.7672 15.3166 76.1355 16.1586 76.0739 20.7696C76.0534 23.9773 74.8416 25.7014 71.9457 25.7014Z"
      fill="#00C300" />
    <g id="Group">
      <path id="Vector_5"
        d="M13.5345 28.2274C17.0055 27.3052 20.7845 27.3453 24.2555 28.3076L25.0771 25.9019C20.9899 24.7592 16.4509 24.7592 12.3638 25.9019L13.1853 28.3076L13.5345 28.2274Z"
        fill="#00C300" />
      <path id="Vector_6" d="M16.7378 12.8905L18.73 14.8953L20.7223 12.8905L18.73 10.8657L16.7378 12.8905Z"
        fill="#00C300" />
      <path id="Vector_7"
        d="M13.4735 18.4441C13.2887 19.7672 14.0281 21.6317 15.4657 23.8369C16.39 23.6966 17.2731 23.6365 18.1563 23.6365L17.9098 23.1954C16.4105 20.3887 16.123 19.5267 16.123 18.9453C16.0819 18.0431 16.8624 17.9629 17.8687 18.0632V15.878C15.5684 15.036 13.6994 16.319 13.4735 18.4441Z"
        fill="#00C300" />
      <path id="Vector_8"
        d="M11.8918 18.3839C10.2898 18.3238 9.078 19.3061 9.078 20.7094C9.01639 21.7118 9.65308 22.9147 11.6042 24.5586C12.4052 24.298 13.3089 24.0975 14.1715 23.9171C12.6312 22.4937 11.481 21.3109 11.6042 20.8498C11.6042 20.7495 11.6042 20.509 12.0766 20.4087L12.4052 20.3486C12.2204 19.687 12.1382 19.0254 12.1998 18.3839H11.8918Z"
        fill="#00C300" />
      <path id="Vector_9"
        d="M19.3064 23.6361C20.1896 23.6562 21.0727 23.7163 21.9969 23.8366C23.4346 21.6314 24.174 19.7669 23.9892 18.4438C23.7427 16.3187 21.8737 15.0357 19.5734 15.8576V18.0428C20.5592 17.9426 21.3397 18.0228 21.3192 18.9249C21.3192 19.5264 21.0316 20.3684 19.5323 23.175L19.3064 23.6361Z"
        fill="#00C300" />
      <path id="Vector_10"
        d="M23.7223 23.4959L23.291 23.9169C24.1536 24.0773 25.0573 24.2978 25.8583 24.5584C27.8095 22.9145 28.4462 21.7116 28.3846 20.7092C28.4051 19.1656 26.9469 18.2434 25.2627 18.4038C25.3038 19.0453 25.2216 19.7069 25.0573 20.3684L25.3859 20.4286C25.8583 20.5088 25.8583 20.7694 25.8583 20.8696C25.8583 21.2706 25.5502 21.7718 23.7223 23.4959Z"
        fill="#00C300" />
      <path id="Vector_11"
        d="M6.04014 18.8449C6.49199 18.5642 7.4573 17.9427 8.58691 17.3613C7.6216 15.136 7.0876 13.1714 7.10814 11.6477C7.10814 8.31981 7.92968 5.61337 9.36737 4.21003C13.1259 0.521241 20.4581 5.23246 23.8059 10.2243C24.8328 10.084 26.0446 9.88354 27.0921 9.88354C23.7238 3.96945 16.9255 0 12.6535 0C6.80006 0 4.17114 5.85394 4.17114 11.6477C4.19168 14.4143 5.13645 16.6797 6.04014 18.8449Z"
        fill="#00C300" />
      <path id="Vector_12"
        d="M27.4414 11.6079C25.7778 11.6079 24.6893 11.8484 24.6893 11.8484C25.059 12.6905 25.326 13.6527 25.4698 14.6551C26.127 14.5749 26.8048 14.4948 27.4414 14.4948C31.1589 14.4747 33.4798 16.5597 33.5619 19.1659C33.5619 20.5492 32.802 22.3735 32.0626 24.1177C31.6929 25.0198 30.9946 26.7439 30.6249 28.2275C30.0088 30.6933 28.2219 37.5497 24.1964 34.9034C23.2721 35.3043 21.9988 35.8656 21.0334 36.1263C22.9435 37.7902 24.258 38.3516 26.1064 38.3516C31.0973 38.3516 32.802 31.4952 33.4592 28.9091C34.0959 26.1024 36.5194 22.173 36.4784 19.1458C36.4373 14.6351 32.1858 11.4675 27.4414 11.6079Z"
        fill="#00C300" />
      <path id="Vector_13"
        d="M22.7361 33.6601C21.9967 32.9584 21.2573 32.2367 20.5385 31.4749C15.3628 33.3794 8.87261 31.1541 5.09354 27.5655C3.738 26.2424 2.91646 24.7589 2.91646 23.5961C2.91646 21.9722 3.45046 20.8095 4.60061 19.9073C4.23092 19.0252 3.84069 18.083 3.51208 17.1608C1.19123 18.6443 0 20.8295 0 23.5961C0 25.5407 1.068 27.6658 3.03969 29.5904C6.90092 33.5799 15.9995 37.0682 22.7361 33.6601Z"
        fill="#00C300" />
    </g>
  </g>
</svg>